<?xml version="1.0" encoding="UTF-8"?><svg id="Layer_2" xmlns="http://www.w3.org/2000/svg" viewBox="0 0 348.41 128.15"><defs><style>.cls-1{fill:#ff5900;}.cls-2{fill:#7900c5;}</style></defs><g id="Layer_1-2"><g><g><path class="cls-1" d="M123.98,54.15c0,12.79-5.05,19.19-15.15,19.19s-15.15-6.4-15.15-19.19V9.82h-17.84V54.55c0,7.08,.74,12.42,2.22,16.02,1.53,4.02,4.15,7.64,7.85,10.86,6.03,5.23,13.67,7.85,22.92,7.85s16.97-2.62,23-7.85c3.65-3.22,6.21-6.85,7.69-10.86,1.53-4.49,2.3-9.83,2.3-16.02V9.82h-17.84V54.15Z"/><path class="cls-1" d="M191.33,7.68c-7.82,0-14.86,3.09-21.09,9.28v-7.14h-17.92V87.06h17.92V49.79c0-9.62,1.22-16.36,3.65-20.22,2.48-3.91,6.69-5.87,12.61-5.87,5.44,0,9.2,1.48,11.26,4.44,2.11,2.91,3.17,8.17,3.17,15.78v43.14h17.92V39.72c0-10.89-2.17-18.74-6.5-23.55-5.02-5.66-12.03-8.49-21.01-8.49Z"/><path class="cls-1" d="M315.52,20.67l8.96-7.77-10.01-3.29-2.2-9.6-8.85,7.94,.51,5.31-5.77,4.85c-7.61-7.34-17.96-11.86-29.36-11.86-23.37,0-42.32,18.95-42.32,42.32s18.95,42.32,42.32,42.32,42.32-18.95,42.32-42.32c0-8.78-2.68-16.94-7.26-23.71l6.49-5.46,5.17,1.26Zm-21.99,27.9c0,13.66-11.07,24.73-24.73,24.73s-24.73-11.07-24.73-24.73,11.07-24.73,24.73-24.73c6,0,11.5,2.14,15.78,5.69l-12.14,10.21c-1.12-.46-2.35-.72-3.63-.72-5.28,0-9.55,4.28-9.55,9.55s4.28,9.55,9.55,9.55,9.55-4.28,9.55-9.55c0-.71-.08-1.4-.23-2.06l12.14-10.21c2.07,3.62,3.26,7.81,3.26,12.27Z"/><polygon class="cls-1" points="0 27.67 39.61 27.67 0 69.22 0 87.06 66.68 87.06 66.68 69.22 24.18 69.22 66.68 27.67 66.68 9.82 0 9.82 0 27.67"/></g><g><g><path class="cls-1" d="M123.98,54.15c0,12.79-5.05,19.19-15.15,19.19s-15.15-6.4-15.15-19.19V9.82h-17.84V54.55c0,7.08,.74,12.42,2.22,16.02,1.53,4.02,4.15,7.64,7.85,10.86,6.03,5.23,13.67,7.85,22.92,7.85s16.97-2.62,23-7.85c3.65-3.22,6.21-6.85,7.69-10.86,1.53-4.49,2.3-9.83,2.3-16.02V9.82h-17.84V54.15Z"/><path class="cls-1" d="M191.33,7.68c-7.82,0-14.86,3.09-21.09,9.28v-7.14h-17.92V87.06h17.92V49.79c0-9.62,1.22-16.36,3.65-20.22,2.48-3.91,6.69-5.87,12.61-5.87,5.44,0,9.2,1.48,11.26,4.44,2.11,2.91,3.17,8.17,3.17,15.78v43.14h17.92V39.72c0-10.89-2.17-18.74-6.5-23.55-5.02-5.66-12.03-8.49-21.01-8.49Z"/><path class="cls-1" d="M315.52,20.67l8.96-7.77-10.01-3.29-2.2-9.6-8.85,7.94,.51,5.31-5.77,4.85c-7.61-7.34-17.96-11.86-29.36-11.86-23.37,0-42.32,18.95-42.32,42.32s18.95,42.32,42.32,42.32,42.32-18.95,42.32-42.32c0-8.78-2.68-16.94-7.26-23.71l6.49-5.46,5.17,1.26Zm-21.99,27.9c0,13.66-11.07,24.73-24.73,24.73s-24.73-11.07-24.73-24.73,11.07-24.73,24.73-24.73c6,0,11.5,2.14,15.78,5.69l-12.14,10.21c-1.12-.46-2.35-.72-3.63-.72-5.28,0-9.55,4.28-9.55,9.55s4.28,9.55,9.55,9.55,9.55-4.28,9.55-9.55c0-.71-.08-1.4-.23-2.06l12.14-10.21c2.07,3.62,3.26,7.81,3.26,12.27Z"/><polygon class="cls-1" points="0 27.67 39.61 27.67 0 69.22 0 87.06 66.68 87.06 66.68 69.22 24.18 69.22 66.68 27.67 66.68 9.82 0 9.82 0 27.67"/></g><g><path class="cls-1" d="M333.2,0V1.67h-3.32V12.48h-2.05V1.67h-3.34V0h8.71Z"/><path class="cls-1" d="M348.41,0V12.48h-2.05V3.93l-3.81,8.55h-1.42l-3.83-8.55V12.48h-2.05V0h2.21l4.38,9.79,4.37-9.79h2.19Z"/></g></g><g><g><path class="cls-2" d="M146.35,113.98v1.62h-2.59v-16.89h2.72v6.22c.91-1.08,2.3-1.71,3.94-1.71,3.48,0,6.12,2.77,6.12,6.32s-2.64,6.31-6.12,6.31c-1.71,0-3.16-.69-4.06-1.86Zm7.46-4.45c0-2.2-1.57-3.77-3.7-3.77s-3.67,1.57-3.67,3.77,1.54,3.74,3.67,3.74,3.7-1.57,3.7-3.74Z"/><path class="cls-2" d="M159.96,120.39l1.93-4.77-4.92-12.16h2.94l3.48,9.03,3.43-9.03h2.89l-6.88,16.94h-2.86Z"/></g><path class="cls-2" d="M179.62,127.73v-16.55h-3.23v-4.29h3.23v-1.22c0-4.03,2.94-6.93,7.65-6.93h2.39v4.12h-2.18c-2.18,0-3.19,1.05-3.19,2.98v1.05h5.71v4.29h-5.71v16.55h-4.66Z"/><path class="cls-2" d="M190.54,117.31c0-6.09,4.83-10.84,11.01-10.84s10.96,4.75,10.96,10.84-4.83,10.84-10.96,10.84-11.01-4.75-11.01-10.84Zm17.31,0c0-3.74-2.65-6.47-6.3-6.47s-6.34,2.73-6.34,6.47,2.69,6.47,6.34,6.47,6.3-2.73,6.3-6.47Z"/><path class="cls-2" d="M215.41,118.44v-11.55h4.66v11.38c0,3.49,1.97,5.46,4.96,5.46s4.96-1.97,4.96-5.46v-11.38h4.66v11.55c0,6.05-3.99,9.7-9.62,9.7s-9.62-3.65-9.62-9.7Z"/><path class="cls-2" d="M238.88,127.73v-20.84h4.45v2.14c1.34-1.6,3.49-2.56,6.13-2.56,5.12,0,8.78,3.65,8.78,9.41v11.85h-4.66v-11.43c0-3.4-1.85-5.42-4.87-5.42s-5.17,2.1-5.17,5.42v11.43h-4.66Z"/><path class="cls-2" d="M261.1,117.31c0-6.09,4.54-10.84,10.5-10.84,2.81,0,5.21,1.09,6.76,2.98v-10.71h4.66v28.99h-4.45v-2.77c-1.51,2.02-4.03,3.19-6.97,3.19-5.96,0-10.5-4.75-10.5-10.84Zm17.31,0c0-3.74-2.65-6.47-6.3-6.47s-6.34,2.73-6.34,6.47,2.69,6.43,6.34,6.43,6.3-2.69,6.3-6.43Z"/><path class="cls-2" d="M287.23,100.97c0-1.55,1.13-2.69,2.69-2.69s2.69,1.13,2.69,2.69-1.13,2.65-2.69,2.65-2.69-1.13-2.69-2.65Zm.34,26.76v-20.84h4.66v20.84h-4.66Z"/><path class="cls-2" d="M305.33,127.73c-4.75,0-7.02-2.06-7.02-6.38v-10.17h-3.44v-4.29h2.39c.63,0,1.05-.42,1.05-1.18v-4.03h4.66v5.21h5.54v4.29h-5.54v9.7c0,1.64,.8,2.48,2.69,2.48h2.86v4.37h-3.19Z"/></g></g></g></svg>